<svg height="499pt" viewBox="0 0 499.37605 499" width="499pt" xmlns="http://www.w3.org/2000/svg"><path d="m450.535156.1875c-.03125 0-.054687 0-.078125 0-11.640625 0-22.914062 4.160156-31.761719 11.710938l-317.640624 271.175781-24.933594 43.648437c-5.761719 10.074219-8.808594 21.546875-8.808594 33.152344 0 6.273438.902344 12.449219 2.625 18.441406l-69.9375 69.9375 51.3125 51.308594 69.933594-69.933594c5.984375 1.726563 12.167968 2.625 18.441406 2.625 11.617188 0 23.089844-3.050781 33.167969-8.808594l43.640625-24.9375 271.167968-317.648437c7.566407-8.871094 11.726563-20.175781 11.710938-31.832031-.039062-26.886719-21.941406-48.792969-48.839844-48.839844zm-407.910156 468.066406 30.34375-30.347656-11.3125-11.308594-30.34375 30.34375-8.6875-8.6875 92.6875-92.691406 28.6875 28.691406-92.6875 92.6875zm122.285156-58.699218c-9.0625 5.175781-19.628906 7.296874-29.949218 6.371093l31.664062-31.671875-51.3125-51.3125-31.585938 31.582032c-.140624-1.550782-.414062-3.078126-.414062-4.648438 0-8.832031 2.3125-17.550781 6.695312-25.222656l19.054688-33.335938 89.183594 89.183594zm310.578125-339.085938-264.648437 310-91.761719-91.761719 310-264.648437c5.953125-5.078125 13.539063-7.878906 21.371094-7.878906h.046875c18.105468.023437 32.839844 14.769531 32.863281 32.855468.03125 7.863282-2.773437 15.464844-7.871094 21.433594zm0 0"/><path d="m160 288.253906 51.3125 51.308594 99.3125-99.308594-51.3125-51.3125zm51.3125 28.6875-28.6875-28.6875 76.6875-76.691406 28.6875 28.691406zm0 0"/><path d="m380.6875 88.253906c-8.183594 0-15.871094 3.183594-21.65625 8.972656l-50.75 50.746094c-5.785156 5.785156-8.96875 13.472656-8.96875 21.648438 0 16.894531 13.742188 30.632812 30.625 30.632812 8.183594 0 15.871094-3.1875 21.65625-8.976562l50.75-50.746094c5.785156-5.785156 8.96875-13.472656 8.96875-21.648438 0-16.894531-13.746094-30.628906-30.625-30.628906zm-40.40625 91.71875c-2.730469 2.71875-6.488281 4.28125-10.34375 4.28125-8.066406 0-14.625-6.5625-14.625-14.632812 0-3.90625 1.519531-7.585938 4.28125-10.34375l19.71875-19.714844 20.6875 20.691406zm50.75-50.746094-19.71875 19.714844-20.6875-20.6875 19.71875-19.714844c2.726562-2.726562 6.488281-4.285156 10.34375-4.285156 8.066406 0 14.625 6.558594 14.625 14.628906 0 3.90625-1.519531 7.578126-4.28125 10.34375zm0 0"/></svg>